# xmcd
#
# Track frame offsets:
#	150
#	13296
#	26739
#	38926
#	53111
#	68129
#	80403
#	96462
#	115623
#	133016
#	149022
#	160523
#	172979
#	187804
#	200111
#	215807
#	231179
#	245569
#	261442
#	275244
#	291416
#
# Disc length: 4112 seconds
#
# Revision: 0
# Processed by: cddbd v1.5.2PL0 Copyright (c) Steve Scherf et al.
# Submitted via: audiograbber 1.81.02
#
DISCID=4b100e15
DTITLE=Maurício Motta e Mikael - Ao vivo
DYEAR=2008
DGENRE=Sertanejo
TTITLE0=Fogo de amor
TTITLE1=Duzentos por hora
TTITLE2=Tapas e beijos
TTITLE3=Do Brasil à Argentina
TTITLE4=Linda mineira
TTITLE5=Muda de vida
TTITLE6=Pra te dizer
TTITLE7=Talismã
TTITLE8=Você
TTITLE9=Juras
TTITLE10=Hoje eu topo o que vier
TTITLE11=Noite triste
TTITLE12=Telefone mudo
TTITLE13=Eu não contava com isso
TTITLE14=Nada mais te prende aqui
TTITLE15=Do outro lado da cidade
TTITLE16=Tanta saudade
TTITLE17=Cigana
TTITLE18=Eu acabo voltando
TTITLE19=Dois passarinhos
TTITLE20=Um grande sonho
EXTD=
EXTT0=
EXTT1=
EXTT2=
EXTT3=
EXTT4=
EXTT5=
EXTT6=
EXTT7=
EXTT8=
EXTT9=
EXTT10=
EXTT11=
EXTT12=
EXTT13=
EXTT14=
EXTT15=
EXTT16=
EXTT17=
EXTT18=
EXTT19=
EXTT20=
PLAYORDER=
